<svg width="62" height="675" viewBox="0 0 62 675" fill="none" xmlns="http://www.w3.org/2000/svg">
<path d="M32.4003 47.2214L32.4003 635.682" stroke="#DAECF6" stroke-width="5" stroke-linecap="round" stroke-dasharray="9 18"/>
<circle cx="30.9003" cy="644.183" r="28.8168" fill="white" stroke="#DAECF6" stroke-width="4"/>
<circle cx="30.9003" cy="353.136" r="28.8168" fill="white" stroke="#DAECF6" stroke-width="4"/>
<path d="M43.6888 341.452L19.1973 354.524C17.5101 355.424 17.9279 357.952 19.8152 358.262L26.061 359.287L43.6888 341.452Z" fill="#003DF0"/>
<path d="M43.6888 341.452L26.061 359.287L30.5753 362.891L37.6238 367.987C38.8624 368.883 40.6069 368.114 40.7824 366.596L43.6888 341.452Z" fill="#003DF0"/>
<path d="M30.5753 362.891L26.061 359.287L25.7271 362.732C25.546 364.602 27.8086 365.667 29.1344 364.337L30.5753 362.891Z" fill="#003DF0"/>
<path d="M43.6888 341.452L19.1973 354.524C17.5101 355.424 17.9279 357.952 19.8152 358.262L26.061 359.287M43.6888 341.452L26.061 359.287M43.6888 341.452L40.7824 366.596C40.6069 368.114 38.8624 368.883 37.6238 367.987L30.5753 362.891M26.061 359.287L25.7271 362.732C25.546 364.602 27.8086 365.667 29.1344 364.337L30.5753 362.891M26.061 359.287L30.5742 362.872C30.5802 362.877 30.5807 362.886 30.5753 362.891V362.891M26.061 359.287L30.5753 362.891" stroke="white" stroke-width="1.5" stroke-linecap="round" stroke-linejoin="round"/>
<path fill-rule="evenodd" clip-rule="evenodd" d="M44.4389 640.775C44.4389 648.305 31.8952 661.225 31.8952 661.225C31.8952 661.225 19.3516 648.305 19.3516 640.775C19.3516 633.245 24.9676 627.141 31.8952 627.141C38.8229 627.141 44.4389 633.245 44.4389 640.775ZM37.8087 639.544C37.8087 642.995 35.1611 645.793 31.8952 645.793C28.6293 645.793 25.9818 642.995 25.9818 639.544C25.9818 636.093 28.6293 633.295 31.8952 633.295C35.1611 633.295 37.8087 636.093 37.8087 639.544Z" fill="#003DF0" stroke="white" stroke-width="1.5" stroke-linecap="round" stroke-linejoin="round"/>
<circle cx="30.9003" cy="30.9789" r="28.8168" fill="white" stroke="#DAECF6" stroke-width="4"/>
<rect x="21.6268" y="16.7073" width="21.5854" height="27.5669" rx="4" fill="#003DF0"/>
<path d="M39.5366 30.8157C39.5366 34.1718 36.8159 36.8925 33.4598 36.8925C30.1038 36.8925 27.3831 34.1718 27.3831 30.8157C27.3831 27.4597 30.1038 24.739 33.4598 24.739C36.8159 24.739 39.5366 27.4597 39.5366 30.8157Z" stroke="white" stroke-width="1.5"/>
<path d="M33.4598 32.24C29.292 32.24 30.1157 33.9444 28.714 34.7815C28.827 34.9229 28.9456 35.0592 29.0693 35.1899C30.193 36.3773 31.7452 37.1117 33.4598 37.1117C35.3632 37.1117 37.0666 36.2066 38.2056 34.7815C36.804 33.9444 37.6277 32.24 33.4598 32.24Z" fill="white"/>
<path d="M35.5295 29.0924C35.5295 30.3003 34.6029 31.2795 33.4598 31.2795C32.3168 31.2795 31.3901 30.3003 31.3901 29.0924C31.3901 27.8845 32.3168 26.9054 33.4598 26.9054C34.6029 26.9054 35.5295 27.8845 35.5295 29.0924Z" fill="white"/>
<rect x="19.2873" y="24.7531" width="4.93908" height="1.39785" rx="0.698926" fill="#003DF0" stroke="white" stroke-width="1.39785"/>
<rect x="19.2873" y="30.1169" width="4.93908" height="1.39785" rx="0.698926" fill="#003DF0" stroke="white" stroke-width="1.39785"/>
<rect x="19.2873" y="35.4807" width="4.93908" height="1.39785" rx="0.698926" fill="#003DF0" stroke="white" stroke-width="1.39785"/>
</svg>
