<svg width="81" height="840" viewBox="0 0 81 840" fill="none" xmlns="http://www.w3.org/2000/svg">
<circle cx="40.5486" cy="40" r="37.75" fill="white" stroke="#DAECF6" stroke-width="4"/>
<rect x="28.3928" y="21" width="28.7759" height="36.75" rx="4" fill="#003DF0"/>
<path d="M52.5184 39.8083C52.5184 44.4204 48.7796 48.1592 44.1676 48.1592C39.5556 48.1592 35.8168 44.4204 35.8168 39.8083C35.8168 35.1963 39.5556 31.4575 44.1676 31.4575C48.7796 31.4575 52.5184 35.1963 52.5184 39.8083Z" stroke="white" stroke-width="1.5"/>
<path d="M44.1676 42.1567C38.6113 42.1567 39.7094 44.3068 37.8409 45.363C37.9915 45.5414 38.1496 45.7133 38.3145 45.8782C39.8125 47.3762 41.8818 48.3026 44.1676 48.3026C46.705 48.3026 48.9759 47.1608 50.4942 45.363C48.6257 44.3068 49.7238 42.1567 44.1676 42.1567Z" fill="white"/>
<path d="M46.9267 38.1858C46.9267 39.7096 45.6914 40.9449 44.1676 40.9449C42.6437 40.9449 41.4084 39.7096 41.4084 38.1858C41.4084 36.662 42.6437 35.4267 44.1676 35.4267C45.6914 35.4267 46.9267 36.662 46.9267 38.1858Z" fill="white"/>
<rect x="25.0922" y="31.5442" width="6.94788" height="2.227" rx="1.1135" fill="#003DF0" stroke="white" stroke-width="1.5"/>
<rect x="25.0922" y="38.6948" width="6.94788" height="2.227" rx="1.1135" fill="#003DF0" stroke="white" stroke-width="1.5"/>
<rect x="25.0922" y="45.8455" width="6.94788" height="2.227" rx="1.1135" fill="#003DF0" stroke="white" stroke-width="1.5"/>
<line x1="43.0486" y1="86" x2="43.0486" y2="789.5" stroke="#DAECF6" stroke-width="5" stroke-linecap="round" stroke-dasharray="9 18"/>
<circle cx="40.5486" cy="800" r="37.75" fill="white" stroke="#DAECF6" stroke-width="4"/>
<circle cx="40.5486" cy="412" r="37.75" fill="white" stroke="#DAECF6" stroke-width="4"/>
<path d="M57.5972 393L23.556 410.194C21.8207 411.07 22.2297 413.657 24.1508 413.955L34.0972 415.5L57.5972 393Z" fill="#003DF0"/>
<path d="M57.5972 393L34.0972 415.5L40.1153 420.047L50.4843 427.142C51.7221 427.989 53.4171 427.222 53.5989 425.734L57.5972 393Z" fill="#003DF0"/>
<path d="M40.1153 420.047L34.0972 415.5L33.4835 421.493C33.2944 423.34 35.5042 424.426 36.8502 423.148L40.1153 420.047Z" fill="#003DF0"/>
<path d="M57.5972 393L23.556 410.194C21.8207 411.07 22.2297 413.657 24.1508 413.955L34.0972 415.5M57.5972 393L34.0972 415.5M57.5972 393L53.5989 425.734C53.4171 427.222 51.7221 427.989 50.4843 427.142L40.1153 420.047M34.0972 415.5L33.4835 421.493C33.2944 423.34 35.5042 424.426 36.8502 423.148L40.1153 420.047M34.0972 415.5L40.1139 420.023C40.1217 420.029 40.1223 420.041 40.1153 420.047V420.047M34.0972 415.5L40.1153 420.047" stroke="white" stroke-width="1.5" stroke-linecap="round" stroke-linejoin="round"/>
<path fill-rule="evenodd" clip-rule="evenodd" d="M58.5972 795.7C58.5972 805.199 41.8749 821.5 41.8749 821.5C41.8749 821.5 25.1527 805.199 25.1527 795.7C25.1527 786.201 32.6395 778.5 41.8749 778.5C51.1104 778.5 58.5972 786.201 58.5972 795.7ZM49.7582 794.147C49.7582 798.501 46.2287 802.031 41.8749 802.031C37.5211 802.031 33.9916 798.501 33.9916 794.147C33.9916 789.793 37.5211 786.264 41.8749 786.264C46.2287 786.264 49.7582 789.793 49.7582 794.147Z" fill="#003DF0" stroke="white" stroke-width="1.5" stroke-linecap="round" stroke-linejoin="round"/>
</svg>
